<svg xmlns="http://www.w3.org/2000/svg" width="159" height="142" fill="none" viewBox="0 0 159 142">
    <path fill="#5813A6" d="M146.116 19.023h-25.172V13.16A12.998 12.998 0 0 0 108.637.012a12.876 12.876 0 0 0-13.435 12.864v44.236H25.728V38.102H12.877A12.871 12.871 0 0 0 .012 51.537a12.999 12.999 0 0 0 13.16 12.293h5.865v64.927a12.891 12.891 0 0 0 13.435 12.871 13.014 13.014 0 0 0 12.273-13.174v-17.029H76.11v17.325a12.892 12.892 0 0 0 12.871 12.885h.592a13.01 13.01 0 0 0 12.3-13.167V63.83h44.216A12.922 12.922 0 0 0 159 50.92V31.935a12.926 12.926 0 0 0-12.884-12.912zM19.01 57.113h-5.838a6.382 6.382 0 0 1-6.449-5.879 6.153 6.153 0 0 1 6.154-6.442h6.16l-.027 12.32zm76.172 71.341a6.39 6.39 0 0 1-5.878 6.456 6.171 6.171 0 0 1-6.449-6.16v-24.009h-44.74v23.713a6.394 6.394 0 0 1-5.878 6.456 6.171 6.171 0 0 1-6.449-6.16V63.83h69.454l-.06 64.624zm57.1-77.542a6.198 6.198 0 0 1-6.193 6.194h-44.216V12.863a6.154 6.154 0 0 1 6.442-6.153 6.374 6.374 0 0 1 5.885 6.449v12.548h31.855a6.207 6.207 0 0 1 6.194 6.194l.033 19.011z"/>
    <path fill="#fff" d="M152.31 31.935v18.977a6.202 6.202 0 0 1-6.194 6.194H101.9V12.863a6.154 6.154 0 0 1 6.442-6.153 6.376 6.376 0 0 1 5.885 6.449v12.548h31.855a6.203 6.203 0 0 1 5.759 3.841 6.22 6.22 0 0 1 .469 2.387zM19.01 44.786v12.327h-5.838a6.382 6.382 0 0 1-6.449-5.878 6.154 6.154 0 0 1 6.153-6.443l6.134-.006zM95.182 63.83v64.624a6.39 6.39 0 0 1-5.878 6.456 6.19 6.19 0 0 1-2.444-.387 6.187 6.187 0 0 1-3.506-3.349 6.177 6.177 0 0 1-.499-2.424v-24.009h-44.74v23.713a6.394 6.394 0 0 1-5.878 6.456 6.19 6.19 0 0 1-2.444-.387 6.188 6.188 0 0 1-3.506-3.349 6.175 6.175 0 0 1-.499-2.424V63.83h69.394z"/>
</svg>
